<svg xmlns="http://www.w3.org/2000/svg">
<symbol id="battery">
    <g clip-path="url(#clip0_30237_180)">
    <path d="M26.031 3.73074H12.969C11.527 3.73074 10.3539 4.90383 10.3539 6.34588V35.8079C10.3539 37.2499 11.527 38.423 12.969 38.423H26.031C27.4731 38.423 28.6462 37.2499 28.6462 35.8079V6.34597C28.6462 4.90383 27.4731 3.73074 26.031 3.73074ZM27.3846 35.8079C27.3846 36.5542 26.7772 37.1616 26.031 37.1616H12.969C12.2228 37.1616 11.6154 36.5542 11.6154 35.8079V6.34597C11.6154 5.59977 12.2228 4.99234 12.969 4.99234H26.031C26.7773 4.99234 27.3847 5.59977 27.3847 6.34597V35.8079H27.3846Z" />
    <path d="M22.9693 0.576935H16.0308C15.6825 0.576935 15.4 0.859395 15.4 1.20773V4.36155C15.4 4.70989 15.6825 4.99235 16.0308 4.99235H22.9693C23.3176 4.99235 23.6001 4.70989 23.6001 4.36155V1.20773C23.6 0.859395 23.3176 0.576935 22.9693 0.576935ZM22.3385 3.73075H16.6615V1.83844H22.3385V3.73075Z" />
    <path d="M24.1319 17.8996C24.0161 17.7175 23.8155 17.6075 23.6 17.6075H19.8154V11.9306C19.8154 11.6349 19.6099 11.379 19.3213 11.315C19.0301 11.2512 18.738 11.396 18.613 11.6639L14.1976 21.1255C14.1065 21.3207 14.1215 21.5494 14.2373 21.731C14.3531 21.9132 14.5537 22.0231 14.7692 22.0231H18.5538V27.7C18.5538 27.9957 18.7593 28.2516 19.0479 28.3157C19.0938 28.3259 19.1396 28.3308 19.1849 28.3308C19.4257 28.3308 19.6509 28.1922 19.7562 27.9667L24.1716 18.5052C24.2627 18.3099 24.2477 18.0812 24.1319 17.8996ZM18.5538 20.7615H15.7597L18.5538 14.7738V20.7615ZM19.8154 24.857V18.8692H22.6095L19.8154 24.857Z" />
    </g>
    <defs>
    <clipPath id="clip0_30237_180">
    <rect transform="translate(0.57692 0.576935)"/>
    </clipPath>
    </defs>
</symbol>
<symbol id="listening">
    <path d="M12.5923 0.788452C6.0838 0.788452 0.788452 6.52513 0.788452 13.6081C0.813499 15.2504 1.26379 16.8582 2.0954 18.2746C2.48837 18.9449 2.82485 19.6468 3.10135 20.373C3.28473 20.9068 3.10872 21.498 2.6633 21.8446C1.88835 22.4641 1.43928 23.404 1.44422 24.3962C1.44111 25.4864 1.9801 26.5069 2.88233 27.1189C3.20669 27.3393 3.40398 27.7033 3.41153 28.0954V33.577C3.41153 37.1929 6.05888 40.1347 9.31347 40.1347C12.5681 40.1347 15.2154 37.1929 15.2154 33.577C15.2054 30.8762 16.3799 28.3068 18.4287 26.5471C22.2694 23.3425 24.4615 18.5777 24.3962 13.576C24.3962 6.52513 19.1008 0.788452 12.5923 0.788452ZM17.5762 25.551C15.2357 27.5594 13.8934 30.4929 13.9039 33.577C13.9039 36.4696 11.8441 38.8231 9.31347 38.8231C6.78285 38.8231 4.72308 36.4696 4.72308 33.577V28.0954C4.71245 27.2832 4.31391 26.5251 3.65089 26.0559C3.09063 25.69 2.75372 25.0654 2.75576 24.3962C2.75126 23.793 3.02755 23.222 3.50334 22.8512C4.37644 22.1517 4.70981 20.9754 4.33355 19.9219C4.03153 19.1275 3.66367 18.3598 3.23382 17.6267C2.51115 16.3975 2.12043 15.0017 2.09999 13.576C2.09999 7.24845 6.80711 2.09999 12.5923 2.09999C18.3775 2.09999 23.0846 7.24845 23.0846 13.576C23.1447 18.1933 21.1213 22.592 17.5762 25.551V25.551Z" />
    <path d="M12.5923 4.06729C8.9377 4.06729 5.82148 6.6589 4.61158 10.2814C4.60305 10.303 4.59715 10.324 4.5906 10.3469C4.24485 11.3989 4.06778 12.4989 4.06598 13.6061C4.06598 14.3931 4.06598 16.7997 5.56966 18.3034C5.82697 18.5519 6.23598 18.5484 6.48893 18.2954C6.74189 18.0425 6.74544 17.6335 6.49692 17.3762C5.95817 16.7773 5.61221 16.03 5.50408 15.2318C5.60966 15.2252 5.71393 15.2167 5.82344 15.2167C8.83343 15.2154 11.2808 17.9696 11.2808 21.3534C11.2808 21.6675 11.2657 21.9626 11.2414 22.2538C10.9149 22.6024 10.5676 22.9309 10.2014 23.2374C8.29139 24.8016 7.2328 27.1762 7.34614 29.6423C7.34614 30.0045 7.63974 30.2981 8.00191 30.2981C8.36409 30.2981 8.65768 30.0045 8.65768 29.6423C8.54487 27.563 9.43359 25.5552 11.0486 24.2408C13.3623 22.465 14.6711 19.6774 14.5596 16.763C14.5596 12.6579 11.4709 9.31345 7.67403 9.31345C7.23785 9.3146 6.80296 9.36075 6.37626 9.45117C7.51611 7.0315 9.91876 5.45745 12.5923 5.37883C16.5696 5.37883 19.8058 9.06885 19.8058 13.6048C19.8573 17.1782 18.3076 20.5872 15.5813 22.8977C15.4908 22.9758 15.3905 23.0597 15.2816 23.1509C13.9766 24.2355 11.2624 26.4953 10.6289 32.1933C10.5906 32.5523 10.8498 32.8748 11.2086 32.9146C11.2325 32.9181 11.2566 32.9203 11.2808 32.9212C11.6148 32.9209 11.8952 32.6696 11.9319 32.3376C12.5071 27.1635 14.8567 25.2087 16.1197 24.1588C16.2358 24.0617 16.3427 23.9725 16.4384 23.8899C19.4567 21.3331 21.1731 17.5601 21.1173 13.6048C21.1173 8.34554 17.2929 4.06729 12.5923 4.06729V4.06729ZM7.67403 10.625C10.7476 10.625 13.2481 13.3792 13.2481 16.763C13.2778 18.0038 13.0314 19.2358 12.5267 20.3697C12.0867 16.7237 9.25247 13.9038 5.82476 13.9038C5.67327 13.9038 5.52769 13.915 5.38145 13.9255C5.38145 13.7996 5.38145 13.6901 5.38145 13.6048C5.38169 12.7278 5.50712 11.8554 5.75393 11.0139C6.36201 10.7587 7.0146 10.6266 7.67403 10.625V10.625Z" />
    <path d="M33.577 15.8712C33.6273 13.8043 34.5038 11.8439 36.0105 10.4283C36.1936 10.2657 36.2708 10.0148 36.2109 9.77745C36.151 9.54012 35.9639 9.35591 35.7257 9.29971C35.4874 9.2435 35.2377 9.32466 35.078 9.51019C33.3267 11.1684 32.3135 13.4598 32.2654 15.8712C32.3135 18.2825 33.3267 20.5739 35.078 22.2321C35.2377 22.4177 35.4874 22.4988 35.7257 22.4426C35.9639 22.3864 36.151 22.2022 36.2109 21.9649C36.2708 21.7275 36.1936 21.4766 36.0105 21.3141C34.5038 19.8984 33.6273 17.938 33.577 15.8712V15.8712Z" />
    <path d="M37.9477 12.1025C37.8178 11.9868 37.6472 11.9275 37.4736 11.9375C37.2999 11.9476 37.1374 12.0263 37.0217 12.1562C35.0519 14.2412 35.0519 17.5012 37.0217 19.5861C37.1775 19.7611 37.4149 19.8397 37.6443 19.7923C37.8738 19.7449 38.0605 19.5786 38.1342 19.3562C38.2078 19.1338 38.1572 18.8889 38.0014 18.7139C36.474 17.1265 36.474 14.6158 38.0014 13.0284C38.1171 12.8985 38.1764 12.7279 38.1664 12.5543C38.1563 12.3806 38.0776 12.2181 37.9477 12.1025V12.1025Z" />
    <path d="M39.9661 14.1209C39.7238 13.8519 39.3093 13.8302 39.0402 14.0724C38.489 14.5066 38.1674 15.1695 38.1674 15.8712C38.1674 16.5728 38.489 17.2358 39.0402 17.67C39.2134 17.8322 39.4608 17.8883 39.687 17.8164C39.9133 17.7445 40.083 17.556 40.1308 17.3235C40.1786 17.091 40.0971 16.8508 39.9176 16.6955C39.6633 16.4935 39.5045 16.1949 39.4789 15.8712C39.5045 15.5475 39.6633 15.2489 39.9176 15.0469C40.1866 14.8046 40.2083 14.3901 39.9661 14.1209V14.1209Z" />
    <path d="M30.2981 15.8712C30.2981 12.9858 31.5906 10.1974 34.036 7.81567C34.2037 7.65167 34.2713 7.41064 34.2131 7.18337C34.1549 6.95609 33.98 6.77711 33.7541 6.71383C33.5282 6.65056 33.2857 6.71261 33.1179 6.87661C30.4161 9.51018 28.9866 12.6205 28.9866 15.8712C28.9866 19.1218 30.4161 22.2321 33.1179 24.8657C33.3772 25.1192 33.793 25.1145 34.0465 24.8552C34.3 24.5959 34.2953 24.1802 34.036 23.9267C31.5906 21.5449 30.2981 18.7566 30.2981 15.8712V15.8712Z" />
    <path d="M27.0193 15.8712C27.0193 12.2684 28.542 8.79802 31.4241 5.83787C31.5881 5.66989 31.65 5.42718 31.5866 5.20116C31.5231 4.97514 31.3439 4.80016 31.1164 4.74212C30.8889 4.68409 30.6477 4.75181 30.4837 4.9198C27.3596 8.13307 25.7077 11.9201 25.7077 15.8712C25.7077 19.8222 27.3596 23.6092 30.4837 26.8225C30.7373 27.0822 31.1533 27.0872 31.413 26.8337C31.6727 26.5801 31.6776 26.1641 31.4241 25.9044C28.542 22.9443 27.0193 19.474 27.0193 15.8712V15.8712Z" />
</symbol>
<symbol id="plug">
    <path d="M21.5923 8.77691H19.7V2.46924C19.7 1.39691 18.88 0.576935 17.8077 0.576935C16.7353 0.576935 15.9154 1.39691 15.9154 2.46924V8.77691H7.08464V2.46924C7.08464 1.39691 6.26466 0.576935 5.19233 0.576935C4.12 0.576935 3.30002 1.39691 3.30002 2.46924V8.77691H1.40772C1.02925 8.77691 0.77697 9.02919 0.77697 9.40765V14.2015C0.77697 17.3553 1.97541 20.383 4.12007 22.7169C6.01238 24.8615 7.08471 27.6369 7.08471 30.4753V32.1153C7.08471 33.8815 8.47238 35.2692 10.2386 35.2692H10.8693V37.7923C10.8693 38.1707 11.1216 38.423 11.5001 38.423C11.8785 38.423 12.1308 38.1707 12.1308 37.7923V35.2692H12.7616C14.5277 35.2692 15.9154 33.8815 15.9154 32.1153V30.5384C15.9154 27.6369 16.9246 24.9246 18.8801 22.78C21.0247 20.4462 22.2232 17.3553 22.2232 14.2016V9.40773C22.2231 9.02927 21.9707 8.77691 21.5923 8.77691ZM17.1769 2.46924C17.1769 2.09078 17.4292 1.8385 17.8077 1.8385C18.1861 1.8385 18.4384 2.09078 18.4384 2.46924V8.77691H17.1769V2.46924ZM4.56151 2.46924C4.56151 2.15383 4.8138 1.8385 5.19226 1.8385C5.57072 1.8385 5.823 2.09078 5.823 2.46924V8.77691H4.56144V2.46924H4.56151ZM20.9615 14.1385C20.9615 17.04 19.9523 19.7524 17.9969 21.897C15.8523 24.2308 14.6539 27.3215 14.6539 30.4754V32.1154C14.6539 33.1878 13.8339 34.0077 12.7616 34.0077H10.2385C9.16618 34.0077 8.3462 33.1878 8.3462 32.1154V30.5385C8.3462 27.3847 7.14777 24.2939 5.0031 21.9601C3.11079 19.8154 2.03846 17.04 2.03846 14.2016V10.0385H3.93077H6.45382H16.5461H19.0692H20.9615V14.1385Z" />
    <path d="M14.0231 16.977H10.4907L13.8338 13.6339C14.0861 13.3816 14.0861 13.0031 13.8338 12.7508C13.5815 12.4984 13.2031 12.4985 12.9507 12.7508L8.53536 17.1661C8.34613 17.3554 8.28307 17.6076 8.40918 17.86C8.47223 18.1123 8.72459 18.2385 8.97687 18.2385H12.5092L9.1661 21.5816C8.91382 21.8338 8.91382 22.2123 9.1661 22.4647C9.29228 22.5908 9.41838 22.6539 9.60762 22.6539C9.79685 22.6539 9.92302 22.5908 10.0491 22.4647L14.4645 18.0493C14.6537 17.8601 14.7168 17.6078 14.5907 17.3554C14.5277 17.1031 14.2754 16.977 14.0231 16.977Z" />
</symbol>
<symbol viewBox="0 0 40 40" id="logo">
    <path d="M20 26C23.3 26 26 23.3 26 20C26 16.7 23.3 14 20 14C16.7 14 14 16.7 14 20C14 23.3 16.7 26 20 26ZM20 0C18 0 15.9 0.3 14 0.9V12C18.4 8.7 24.7 9.6 28 14C31.3 18.4 30.4 24.7 26 28C21.6 31.3 15.3 30.4 12 26C10.7 24.3 9.99999 22.2 9.99999 20V2.7C0.399989 8.2 -2.80001 20.4 2.69999 30C8.19999 39.6 20.4 42.8 30 37.3C39.6 31.8 42.8 19.6 37.3 10C33.8 3.8 27.2 0 20 0Z"/>
</symbol>
<symbol viewBox="0 0 14 15" id="phone">
    <path d="M13.7455 13.0923C13.4909 13.5935 12.9818 13.8441 12.4727 14.0947C11.8364 14.4706 11.3273 14.5959 10.6909 14.5959C9.8 14.5959 8.90909 14.22 8.14545 13.9694C7.50909 13.7188 7 13.4682 6.36364 13.2176C4.58182 12.09 2.54545 10.0853 1.52727 8.45643C1.14545 7.82996 0.890909 7.32878 0.636364 6.70231C0.381818 5.82525 0 5.07349 0 4.07113C0 3.44466 0.127273 2.81819 0.509091 2.19172C0.763636 1.69054 1.01818 1.18936 1.52727 0.938771C1.90909 0.938771 2.54545 0.813477 2.92727 0.813477C3.05455 0.813477 3.05455 0.813477 3.18182 0.813477C3.43636 0.938771 3.56364 1.31465 3.69091 1.56524C3.94545 2.19172 4.32727 2.69289 4.58182 3.31936C4.83636 3.56995 5.09091 3.82054 5.09091 4.07113C5.09091 4.6976 3.30909 5.57466 3.30909 6.07584C3.30909 6.32643 3.56364 6.70231 3.69091 6.9529C4.70909 8.70702 5.98182 9.95997 7.76364 10.9623C8.01818 11.0876 8.4 11.3382 8.65455 11.3382C9.16364 11.3382 10.0545 9.58408 10.6909 9.58408C10.9455 9.58408 11.2 9.83467 11.4545 10.0853C11.9636 10.4611 12.6 10.7117 13.1091 11.0876C13.3636 11.2129 13.7455 11.3382 13.8727 11.5888C13.8727 11.7141 13.8727 11.7141 13.8727 11.8394C14 12.09 13.8727 12.7164 13.7455 13.0923Z"/>
</symbol>
<symbol viewBox="0 0 32 60" id="BenefitBattery">
    <path d="M28.536 4H22V0H10V4H3.464C1.554 4 0 5.554 0 7.464V56.536C0 58.446 1.554 60 3.464 60H28.536C30.446 60 32 58.446 32 56.536V7.464C32 5.554 30.446 4 28.536 4ZM2 19H30V31H2V19ZM2 33H30V45H2V33ZM12 2H20V4H12V2ZM3.464 6H10H22H28.536C29.344 6 30 6.656 30 7.464V17H2V7.464C2 6.656 2.656 6 3.464 6ZM28.536 58H3.464C2.656 58 2 57.344 2 56.536V47H30V56.536C30 57.344 29.344 58 28.536 58Z" />
</symbol>
<symbol viewBox="0 0 58 60" id="BenefitLifetime">
    <path d="M30.634 37.989C31.675 37.908 32.624 37.377 33.24 36.53L42.603 23.586C42.89 23.189 42.847 22.641 42.499 22.293C42.151 21.946 41.603 21.903 41.206 22.189L28.26 31.555C27.416 32.169 26.885 33.118 26.804 34.159C26.723 35.2 27.1 36.219 27.837 36.956C28.508 37.628 29.413 38 30.354 38C30.447 38 30.54 37.996 30.634 37.989ZM28.798 34.315C28.833 33.858 29.067 33.441 29.435 33.173L37.332 27.46L31.621 35.355C31.351 35.726 30.934 35.959 30.477 35.995C30.022 36.025 29.575 35.867 29.25 35.542C28.928 35.219 28.762 34.771 28.798 34.315Z" />
    <path d="M53.034 19.564C53.024 19.543 53.024 19.521 53.013 19.5C53.001 19.48 52.982 19.469 52.969 19.45C51.958 17.716 50.762 16.103 49.404 14.641L51.552 12.494L52.966 13.908L57.208 9.665L52.966 5.423L48.723 9.665L50.138 11.08L47.99 13.227C46.528 11.869 44.916 10.672 43.181 9.661C43.162 9.648 43.151 9.629 43.131 9.617C43.11 9.605 43.088 9.606 43.067 9.595C39.974 7.813 36.499 6.626 32.794 6.191V5H34.294C35.673 5 36.794 3.879 36.794 2.5C36.794 1.121 35.672 0 34.293 0H25.293C23.914 0 22.793 1.121 22.793 2.5C22.793 3.879 23.914 5 25.293 5H26.793V6.156C25.713 6.271 24.635 6.447 23.569 6.691C23.031 6.814 22.694 7.351 22.818 7.889C22.941 8.427 23.478 8.765 24.016 8.64C24.936 8.429 25.865 8.27 26.796 8.163L27.869 8.08C28.197 8.055 28.499 8.037 28.793 8.023V10C28.793 10.553 29.24 11 29.793 11C30.346 11 30.793 10.553 30.793 10V8.03C34.554 8.203 38.098 9.213 41.249 10.875L40.263 12.582C39.987 13.061 40.151 13.672 40.629 13.948C40.786 14.039 40.958 14.082 41.128 14.082C41.474 14.082 41.81 13.903 41.995 13.582L42.978 11.879C46.107 13.864 48.765 16.522 50.75 19.651L49.047 20.634C48.57 20.91 48.406 21.521 48.683 22C48.869 22.321 49.204 22.5 49.55 22.5C49.72 22.5 49.892 22.457 50.049 22.366L51.756 21.38C53.441 24.576 54.454 28.178 54.605 31.999H52.63C52.077 31.999 51.63 32.446 51.63 32.999C51.63 33.552 52.077 33.999 52.63 33.999H54.605C54.454 37.82 53.441 41.422 51.756 44.618L50.049 43.632C49.571 43.356 48.959 43.518 48.683 43.998C48.407 44.477 48.571 45.088 49.049 45.364L50.752 46.347C48.767 49.476 46.109 52.134 42.98 54.119L41.997 52.416C41.72 51.936 41.107 51.773 40.631 52.05C40.152 52.326 39.988 52.938 40.265 53.416L41.251 55.123C38.1 56.785 34.556 57.795 30.795 57.968V56C30.795 55.447 30.348 55 29.795 55C29.242 55 28.795 55.447 28.795 56V57.976C27.198 57.921 25.596 57.721 24.019 57.359C23.481 57.23 22.944 57.572 22.821 58.11C22.697 58.648 23.034 59.185 23.572 59.308C25.568 59.768 27.607 60 29.63 60C29.679 60 29.726 59.997 29.775 59.996C29.782 59.996 29.787 60 29.793 60C29.801 60 29.808 59.995 29.816 59.995C34.623 59.962 39.133 58.664 43.035 56.422C43.066 56.408 43.099 56.401 43.129 56.383C43.149 56.371 43.16 56.352 43.179 56.339C47.218 53.985 50.593 50.614 52.952 46.578C52.971 46.551 52.995 46.53 53.012 46.5C53.024 46.479 53.023 46.457 53.033 46.436C55.317 42.476 56.63 37.89 56.63 33C56.63 28.11 55.317 23.524 53.034 19.564ZM52.965 8.251L54.379 9.665L52.965 11.08L51.55 9.665L52.965 8.251ZM28.793 6.021V3H25.293C25.018 3 24.793 2.775 24.793 2.5C24.793 2.225 25.018 2 25.293 2H34.293C34.568 2 34.793 2.225 34.793 2.5C34.793 2.775 34.568 3 34.293 3H30.793V6.021C30.445 6.007 30.113 6 29.793 6C29.765 6 29.733 6.002 29.705 6.002C29.68 6.002 29.655 6 29.63 6C29.466 6 29.302 6.011 29.138 6.014C29.022 6.017 28.913 6.016 28.793 6.021Z" />
    <path d="M20.793 14H15.793C15.24 14 14.793 14.447 14.793 15C14.793 15.553 15.24 16 15.793 16H20.793C21.346 16 21.793 15.553 21.793 15C21.793 14.447 21.346 14 20.793 14Z" />
    <path d="M20.793 21H10.793C10.24 21 9.793 21.447 9.793 22C9.793 22.553 10.24 23 10.793 23H20.793C21.346 23 21.793 22.553 21.793 22C21.793 21.447 21.346 21 20.793 21Z" />
    <path d="M20.793 28H5.793C5.24 28 4.793 28.447 4.793 29C4.793 29.553 5.24 30 5.793 30H20.793C21.346 30 21.793 29.553 21.793 29C21.793 28.447 21.346 28 20.793 28Z" />
    <path d="M20.793 35H1.793C1.24 35 0.792999 35.447 0.792999 36C0.792999 36.553 1.24 37 1.793 37H20.793C21.346 37 21.793 36.553 21.793 36C21.793 35.447 21.346 35 20.793 35Z" />
    <path d="M20.793 42H7.793C7.24 42 6.793 42.447 6.793 43C6.793 43.553 7.24 44 7.793 44H20.793C21.346 44 21.793 43.553 21.793 43C21.793 42.447 21.346 42 20.793 42Z" />
    <path d="M20.793 49H13.793C13.24 49 12.793 49.447 12.793 50C12.793 50.553 13.24 51 13.793 51H20.793C21.346 51 21.793 50.553 21.793 50C21.793 49.447 21.346 49 20.793 49Z" />
</symbol>
<symbol viewBox="0 0 53 47" id="BenefitSound">
    <path d="M28.404 0.412994C27.428 -0.139006 26.273 -0.121006 25.314 0.456994C25.268 0.483994 25.224 0.515994 25.184 0.549994L11.634 12.013H1C0.447 12.013 0 12.46 0 13.013V32.013C0 32.279 0.105 32.533 0.293 32.72C0.481 32.907 0.734 33.013 1 33.013L11.61 33.008L25.153 45.448C25.203 45.494 25.257 45.534 25.314 45.568C25.806 45.865 26.351 46.014 26.896 46.014C27.413 46.013 27.929 45.88 28.404 45.612C29.403 45.048 30 44.018 30 42.857V3.16899C30 2.00799 29.403 0.977994 28.404 0.412994ZM28 42.857C28 43.288 27.783 43.667 27.421 43.872C27.266 43.959 26.873 44.127 26.421 43.898L13 31.569V27.013C13 26.46 12.553 26.013 12 26.013C11.447 26.013 11 26.46 11 27.013V31.009L2 31.013V14.013H11V18.013C11 18.566 11.447 19.013 12 19.013C12.553 19.013 13 18.566 13 18.013V13.477L26.405 2.13699C26.866 1.89499 27.265 2.06699 27.421 2.15499C27.783 2.35999 28 2.73899 28 3.16899V42.857Z" />
    <path d="M38.797 4.06596C38.274 3.88896 37.706 4.16896 37.528 4.69196C37.351 5.21396 37.631 5.78296 38.154 5.96096C45.255 8.37196 50.026 15.024 50.026 22.514C50.026 29.997 45.264 36.65 38.177 39.068C37.655 39.246 37.375 39.814 37.554 40.338C37.696 40.753 38.084 41.015 38.5 41.015C38.607 41.015 38.716 40.998 38.823 40.961C46.719 38.268 52.025 30.855 52.025 22.515C52.026 14.166 46.71 6.75296 38.797 4.06596Z" />
    <path d="M43.026 22.513C43.026 16.541 39.017 11.211 33.277 9.55098C32.744 9.39998 32.193 9.70298 32.039 10.235C31.886 10.765 32.191 11.32 32.723 11.473C37.612 12.886 41.027 17.426 41.027 22.513C41.027 27.6 37.612 32.14 32.723 33.553C32.192 33.706 31.886 34.261 32.039 34.791C32.166 35.229 32.565 35.514 33 35.514C33.092 35.514 33.185 35.501 33.277 35.475C39.018 33.815 43.026 28.485 43.026 22.513Z" />
</symbol>
<symbol viewBox="0 0 32 32" id="VK">
    <path d="M16 0C7.16564 0 0 7.16564 0 16C0 24.8344 7.16564 32 16 32C24.8344 32 32 24.8344 32 16C32 7.16564 24.8344 0 16 0ZM24.1145 17.7342C24.8671 18.454 25.6524 19.1411 26.3067 19.9591C26.6012 20.319 26.8957 20.6789 27.092 21.1043C27.3865 21.6933 27.1247 22.3476 26.6012 22.3804H23.3292C22.4785 22.4458 21.8241 22.1186 21.2352 21.5297C20.7771 21.0716 20.3517 20.5808 19.9264 20.09C19.7628 19.8937 19.5665 19.6973 19.3374 19.5665C18.8793 19.272 18.4867 19.3701 18.2577 19.8282C17.9959 20.319 17.9305 20.8425 17.8978 21.3661C17.865 22.1513 17.636 22.3476 16.8507 22.3804C15.182 22.4458 13.6115 22.2168 12.1718 21.3661C10.8957 20.6135 9.88139 19.5992 9.03067 18.4213C7.32924 16.1309 6.05317 13.6115 4.87526 11.0266C4.6135 10.4376 4.80982 10.1431 5.46421 10.1104C6.54397 10.0777 7.591 10.0777 8.67076 10.1104C9.09611 10.1104 9.39059 10.3722 9.55419 10.7648C10.1431 12.1718 10.8303 13.546 11.7137 14.7894C11.9427 15.1166 12.2045 15.4438 12.5317 15.7055C12.9243 15.9673 13.1861 15.8691 13.3824 15.4438C13.4806 15.182 13.546 14.8875 13.5787 14.593C13.6769 13.6115 13.6769 12.6299 13.5133 11.6483C13.4151 10.9939 13.0879 10.6012 12.4663 10.4703C12.1391 10.4049 12.2045 10.3067 12.3354 10.1104C12.5971 9.81595 12.8589 9.61963 13.3497 9.61963H17.047C17.636 9.75051 17.7669 9.97955 17.8323 10.5685V14.6912C17.8323 14.9202 17.9305 15.6074 18.3558 15.7382C18.683 15.8364 18.9121 15.5746 19.1084 15.3783C19.9918 14.4294 20.6135 13.317 21.2025 12.1718C21.4642 11.6483 21.6605 11.1247 21.8896 10.6012C22.0532 10.2086 22.2822 10.0123 22.7403 10.0123H26.3067C26.4049 10.0123 26.5031 10.0123 26.6339 10.045C27.2229 10.1431 27.3865 10.4049 27.2229 10.9939C26.9284 11.91 26.3722 12.6953 25.816 13.4479C25.227 14.2658 24.5726 15.0511 23.9836 15.9018C23.3947 16.6871 23.4274 17.0798 24.1145 17.7342Z"/>
</symbol>
<symbol viewBox="0 0 32 32" id="FB">
    <path d="M18.5813 31.7939C18.45 31.8127 18.3125 31.8377 18.1813 31.8564C18.3125 31.8314 18.4438 31.8127 18.5813 31.7939Z" />
    <path d="M18.9 31.7373C18.8375 31.7498 18.775 31.7623 18.7063 31.7686C18.775 31.7623 18.8375 31.7498 18.9 31.7373Z" />
    <path d="M17.8187 31.8936C17.6625 31.9123 17.5062 31.9248 17.35 31.9373C17.5062 31.9311 17.6625 31.9123 17.8187 31.8936Z" />
    <path d="M18.1313 31.8564C18.0563 31.8689 17.9813 31.8752 17.9062 31.8814C17.975 31.8752 18.0563 31.8689 18.1313 31.8564Z" />
    <path d="M19.3375 31.6499C19.2812 31.6624 19.225 31.6749 19.1687 31.6874C19.225 31.6749 19.2812 31.6624 19.3375 31.6499Z" />
    <path d="M20.4188 31.3813C20.375 31.3938 20.325 31.4063 20.2812 31.4188C20.325 31.4063 20.3688 31.3938 20.4188 31.3813Z" />
    <path d="M20.0875 31.4688C20.0375 31.4813 19.9875 31.4938 19.9375 31.5063C19.9937 31.5 20.0375 31.4875 20.0875 31.4688Z" />
    <path d="M19.6625 31.5811C19.6125 31.5936 19.5562 31.6061 19.5062 31.6186C19.5562 31.5998 19.6125 31.5873 19.6625 31.5811Z" />
    <path d="M17.3438 31.9438C17.2625 31.9501 17.175 31.9563 17.0938 31.9626C17.175 31.9563 17.2625 31.9501 17.3438 31.9438Z" />
    <path d="M32 16C32 7.1625 24.8375 0 16 0C7.1625 0 0 7.1625 0 16C0 24.8375 7.1625 32 16 32C16.0938 32 16.1875 32 16.2812 31.9937V19.5438H12.8438V15.5375H16.2812V12.5875C16.2812 9.16875 18.3688 7.30625 21.4188 7.30625C22.8813 7.30625 24.1375 7.4125 24.5 7.4625V11.0375H22.4C20.7437 11.0375 20.4188 11.825 20.4188 12.9812V15.5312H24.3875L23.8687 19.5375H20.4188V31.3813C27.1063 29.4625 32 23.3063 32 16Z" />
    <path d="M17.0563 31.9624C16.8875 31.9749 16.725 31.9812 16.5563 31.9874C16.725 31.9812 16.8875 31.9749 17.0563 31.9624Z" />
    <path d="M16.55 31.9873C16.4625 31.9873 16.375 31.9936 16.2875 31.9936C16.3687 31.9936 16.4562 31.9936 16.55 31.9873Z" />
</symbol>
<symbol viewBox="0 0 32 32" id="INST">
    <path d="M19.0625 16C19.0625 17.6937 17.6937 19.0625 16 19.0625C14.3062 19.0625 12.9375 17.6937 12.9375 16C12.9375 14.3062 14.3062 12.9375 16 12.9375C17.6937 12.9375 19.0625 14.3062 19.0625 16Z"/>
    <path d="M23.1625 10.5812C23.0125 10.1812 22.7813 9.81865 22.475 9.5249C22.1813 9.21865 21.8188 8.9874 21.4188 8.8374C21.0938 8.7124 20.6063 8.5624 19.7125 8.51865C18.7438 8.4749 18.45 8.4624 16 8.4624C13.5438 8.4624 13.2563 8.46865 12.2875 8.51865C11.3938 8.5624 10.9063 8.7124 10.5813 8.8374C10.1813 8.9874 9.81877 9.21865 9.52502 9.5249C9.21877 9.81865 8.98752 10.1812 8.83752 10.5812C8.71252 10.9062 8.56252 11.3937 8.51877 12.2874C8.47502 13.2562 8.46252 13.5437 8.46252 15.9999C8.46252 18.4499 8.47502 18.7437 8.51877 19.7124C8.56252 20.6062 8.70627 21.0937 8.83752 21.4187C8.98752 21.8187 9.21877 22.1812 9.52502 22.4749C9.81877 22.7812 10.1813 23.0124 10.5813 23.1624C10.9063 23.2874 11.3938 23.4374 12.2875 23.4812C13.2563 23.5249 13.5438 23.5374 16 23.5374C18.4563 23.5374 18.7438 23.5312 19.7125 23.4812C20.6063 23.4374 21.0938 23.2937 21.4188 23.1624C22.2188 22.8562 22.8563 22.2187 23.1625 21.4187C23.2875 21.0937 23.4375 20.6062 23.4813 19.7124C23.525 18.7437 23.5375 18.4499 23.5375 15.9999C23.5375 13.5437 23.5313 13.2562 23.4813 12.2874C23.4375 11.3937 23.2875 10.9062 23.1625 10.5812ZM16 20.7187C13.3938 20.7187 11.2813 18.6062 11.2813 15.9999C11.2813 13.3937 13.3938 11.2812 16 11.2812C18.6063 11.2812 20.7188 13.3937 20.7188 15.9999C20.7188 18.6062 18.6063 20.7187 16 20.7187ZM20.9063 12.1999C20.3 12.1999 19.8063 11.7062 19.8063 11.0999C19.8063 10.4937 20.3 9.9999 20.9063 9.9999C21.5125 9.9999 22.0063 10.4937 22.0063 11.0999C22.0063 11.7062 21.5125 12.1999 20.9063 12.1999Z"/>
    <path d="M16 0C7.1625 0 0 7.1625 0 16C0 24.8375 7.1625 32 16 32C24.8375 32 32 24.8375 32 16C32 7.1625 24.8375 0 16 0ZM25.1313 19.7875C25.0875 20.7625 24.9312 21.4312 24.7062 22.0187C24.2312 23.25 23.2562 24.2312 22.0187 24.7062C21.4375 24.9312 20.7688 25.0875 19.7875 25.1313C18.8062 25.175 18.4937 25.1875 16 25.1875C13.5063 25.1875 13.1937 25.175 12.2125 25.1313C11.2375 25.0875 10.5687 24.9312 9.98125 24.7062C9.36875 24.475 8.8125 24.1125 8.35625 23.6437C7.8875 23.1875 7.525 22.6312 7.29375 22.0187C7.06875 21.4375 6.9125 20.7688 6.86875 19.7875C6.825 18.8062 6.8125 18.4937 6.8125 16C6.8125 13.5063 6.825 13.1937 6.86875 12.2125C6.9125 11.2375 7.06875 10.5687 7.29375 9.98125C7.525 9.36875 7.8875 8.8125 8.35625 8.35625C8.8125 7.8875 9.36875 7.525 9.98125 7.29375C10.5687 7.06875 11.2312 6.9125 12.2125 6.86875C13.1937 6.825 13.5063 6.8125 16 6.8125C18.4937 6.8125 18.8062 6.825 19.7875 6.86875C20.7625 6.9125 21.4312 7.06875 22.0187 7.29375C22.6312 7.525 23.1875 7.8875 23.6437 8.35625C24.1125 8.8125 24.475 9.36875 24.7062 9.98125C24.9312 10.5687 25.0875 11.2312 25.1313 12.2125C25.175 13.1937 25.1875 13.5063 25.1875 16C25.1875 18.4937 25.175 18.8062 25.1313 19.7875Z"/>
</symbol>
<symbol viewBox="0 0 32 32" id="TG">
    <path d="M16 32C24.8375 32 32 24.8375 32 16C32 7.1625 24.8375 0 16 0C7.1625 0 0 7.1625 0 16C0 24.8375 7.1625 32 16 32ZM7.31875 15.6562L22.75 9.70625C23.4688 9.45 24.0938 9.88125 23.8563 10.9625L21.2313 23.3375C21.0375 24.2125 20.5125 24.4313 19.7875 24.0125L15.7875 21.0625L13.8562 22.9188C13.6438 23.1313 13.4625 23.3125 13.05 23.3125L13.3313 19.2437L20.75 12.55C21.075 12.2688 20.675 12.1062 20.25 12.3875L11.0875 18.1562L7.1375 16.925C6.28125 16.65 6.2625 16.0688 7.31875 15.6562Z"/>
</symbol>
<symbol viewBox="0 0 43 55" id="marker">
<path d="M21.5 0C14.0217 0 0 5.78947 0 22.193C0 38.5965 21.5 55 21.5 55C21.5 55 43 38.5965 43 22.193C43 5.78947 28.9783 0 21.5 0Z" fill="#E01F3D"/>
<g clip-path="url(#clip0_4_1064)">
<path d="M21.5 25.4735C23.3671 25.4735 24.8947 23.9104 24.8947 21.9998C24.8947 20.0893 23.3671 18.5262 21.5 18.5262C19.6329 18.5262 18.1052 20.0893 18.1052 21.9998C18.1052 23.9104 19.6329 25.4735 21.5 25.4735ZM21.5 10.4209C20.3684 10.4209 19.1802 10.5946 18.1052 10.942V17.3683C20.5947 15.4577 24.1592 15.9788 26.0263 18.5262C27.8934 21.0735 27.3842 24.7209 24.8947 26.6314C22.4052 28.542 18.8408 28.0209 16.9737 25.4735C16.2381 24.4893 15.8421 23.2735 15.8421 21.9998V11.9841C10.4105 15.1683 8.59999 22.2314 11.7118 27.7893C14.8237 33.3472 21.7263 35.1998 27.1579 32.0156C32.5895 28.8314 34.4 21.7683 31.2881 16.2104C29.3079 12.6209 25.5737 10.4209 21.5 10.4209Z" fill="white"/>
</g>
<defs>
<clipPath id="clip0_4_1064">
<rect width="22.6316" height="23.1579" fill="white" transform="translate(10.1842 10.4209)"/>
</clipPath>
</defs>
</symbol>
</svg>
