<svg width="7" height="11" viewBox="0 0 7 11" fill="none" xmlns="http://www.w3.org/2000/svg">
<path d="M6.02305 4.97697H2.49072L5.83382 1.63387C6.0861 1.38158 6.0861 1.00312 5.83382 0.750763C5.58154 0.498406 5.20308 0.49848 4.95072 0.750763L0.535357 5.16612C0.346126 5.35535 0.283074 5.60764 0.409178 5.86C0.472231 6.11228 0.724587 6.23846 0.976871 6.23846H4.50921L1.1661 9.58156C0.913818 9.83384 0.913818 10.2123 1.1661 10.4647C1.29228 10.5908 1.41839 10.6539 1.60762 10.6539C1.79685 10.6539 1.92302 10.5908 2.04913 10.4647L6.46449 6.0493C6.65372 5.86007 6.71678 5.60779 6.59067 5.35543C6.52769 5.10307 6.27541 4.97697 6.02305 4.97697Z" fill="black"/>
</svg>
