<svg width="11" height="18" viewBox="0 0 11 18" fill="none" xmlns="http://www.w3.org/2000/svg">
<path d="M10.1319 6.89959C10.0161 6.71747 9.81554 6.60752 9.59997 6.60752H5.81535V0.930603C5.81535 0.63493 5.60986 0.378988 5.3213 0.314957C5.03006 0.251202 4.73799 0.395989 4.61298 0.663943L0.197561 10.1255C0.106457 10.3207 0.121519 10.5494 0.237293 10.731C0.353068 10.9132 0.553664 11.0231 0.769228 11.0231H4.55385V16.7C4.55385 16.9957 4.75934 17.2516 5.0479 17.3157C5.09382 17.3259 5.13965 17.3308 5.18492 17.3308C5.42571 17.3308 5.65089 17.1922 5.75622 16.9667L10.1716 7.50517C10.2627 7.30993 10.2477 7.08124 10.1319 6.89959ZM4.55385 9.76152H1.75973L4.55385 3.77377V9.76152ZM5.81535 13.857V7.86921H8.60947L5.81535 13.857Z" fill="black"/>
</svg>
